<?xml version="1.0" encoding="utf-8"?>
<!-- Generator: Adobe Illustrator 16.0.0, SVG Export Plug-In . SVG Version: 6.00 Build 0)  -->
<!DOCTYPE svg PUBLIC "-//W3C//DTD SVG 1.1//EN" "http://www.w3.org/Graphics/SVG/1.1/DTD/svg11.dtd">
<svg version="1.1" id="Layer_1" xmlns="http://www.w3.org/2000/svg" xmlns:xlink="http://www.w3.org/1999/xlink" x="0px" y="0px"
	 width="1024px" height="512px" viewBox="0 0 1024 512" style="enable-background:new 0 0 1024 512;" xml:space="preserve">
<text transform="matrix(1 0 0 1 238.2549 117.3545)" style="font-family:'Verdana'; font-size:16;">(before)</text>
<line style="fill:none;stroke:#000000;stroke-width:2;stroke-linejoin:round;stroke-miterlimit:8;" x1="142.079" y1="258.861" x2="227.669" y2="204.962"/>
<line style="fill:none;stroke:#B5B5B5;stroke-width:4;stroke-linejoin:round;stroke-miterlimit:8;" x1="228.117" y1="191.978" x2="228.117" y2="160.95"/>
<line style="fill:none;stroke:#F15A24;stroke-width:7;stroke-linejoin:round;stroke-miterlimit:8;" x1="239.281" y1="208.064" x2="309.163" y2="248.058"/>
<line style="fill:none;stroke:#000000;stroke-width:2;stroke-linejoin:round;stroke-miterlimit:8;" x1="398.414" y1="338.717" x2="332.859" y2="265.633"/>
<line style="fill:none;stroke:#000000;stroke-width:2;stroke-linejoin:round;stroke-miterlimit:8;" x1="247.832" y1="340.116" x2="320.399" y2="257.805"/>
<polygon style="fill:#FFFFFF;" points="392.111,320.962 397.598,322.069 401.986,323.546 406.009,326.498 409.849,330.743 
	438.009,375.404 439.655,379.648 440.753,384.078 441.118,389.061 440.386,393.49 438.376,397.735 435.632,401.057 431.243,403.825 
	427.038,405.67 423.38,406.593 419.907,406.962 366.512,406.962 359.38,405.116 354.992,403.456 350.785,400.688 348.043,397.735 
	346.031,393.49 345.117,389.246 345.482,383.894 346.031,379.833 348.043,375.22 374.009,330.374 377.666,326.498 382.603,323.361 
	388.088,321.331 "/>
<polygon style="fill:none;stroke:#B5B5B5;stroke-width:2;stroke-linejoin:round;stroke-miterlimit:8;" points="392.111,320.962 
	397.598,322.069 401.986,323.546 406.009,326.498 409.849,330.743 438.009,375.404 439.655,379.648 440.753,384.078 
	441.118,389.061 440.386,393.49 438.376,397.735 435.632,401.058 431.243,403.825 427.038,405.67 423.38,406.593 419.907,406.962 
	366.512,406.962 359.38,405.116 354.992,403.456 350.785,400.688 348.043,397.735 346.031,393.49 345.117,389.246 345.482,383.894 
	346.031,379.833 348.043,375.22 374.009,330.374 377.666,326.498 382.603,323.361 388.088,321.331 "/>
<text transform="matrix(1 0 0 1 367.6235 373.9619)"><tspan x="0" y="0" style="fill:#666666; font-family:'LucidaGrande'; font-size:16;">g</tspan><tspan x="9.977" y="0" style="fill:#666666; font-family:'LucidaGrande'; font-size:16;">r</tspan><tspan x="16.219" y="0" style="fill:#666666; font-family:'LucidaGrande'; font-size:16;">eater</tspan><tspan x="3.528" y="19.2" style="fill:#666666; font-family:'LucidaGrande'; font-size:16;">than S</tspan></text>
<text transform="matrix(1 0 0 1 351.3638 262.9619)" style="fill:#333333; font-family:'LucidaGrande'; font-size:16;">x</text>
<text transform="matrix(1 0 0 1 189.6836 207.9619)" style="fill:#333333; font-family:'LucidaGrande'; font-size:16;">h</text>
<path style="fill:#FFFFFF;" d="M333.431,246.648c6.249,6.248,6.249,16.379,0,22.627c-6.248,6.249-16.379,6.249-22.627,0
	c-6.249-6.248-6.249-16.379,0-22.627C317.052,240.4,327.183,240.4,333.431,246.648"/>
<path style="fill:none;stroke:#000000;stroke-linejoin:round;stroke-miterlimit:8;" d="M333.431,246.648
	c6.249,6.248,6.249,16.379,0,22.627c-6.248,6.249-16.379,6.249-22.627,0c-6.249-6.248-6.249-16.379,0-22.627
	C317.052,240.4,327.183,240.4,333.431,246.648"/>
<text transform="matrix(1 0 0 1 316.1885 263.9619)" style="font-family:'LucidaGrande'; font-size:22;">S</text>
<polygon style="fill:#FFFFFF;" points="253.111,320.712 258.598,321.819 262.986,323.296 267.009,326.248 270.849,330.493 
	299.008,375.154 300.654,379.398 301.752,383.828 302.117,388.811 301.386,393.24 299.375,397.485 296.631,400.807 292.242,403.575 
	288.037,405.42 284.38,406.343 280.906,406.712 227.512,406.712 220.38,404.866 215.991,403.206 211.786,400.438 209.043,397.485 
	207.031,393.24 206.117,388.996 206.483,383.644 207.031,379.583 209.043,374.97 235.009,330.124 238.666,326.248 243.603,323.111 
	249.088,321.081 "/>
<polygon style="fill:none;stroke:#B5B5B5;stroke-width:2;stroke-linejoin:round;stroke-miterlimit:8;" points="253.111,320.712 
	258.598,321.819 262.986,323.296 267.009,326.248 270.849,330.493 299.008,375.154 300.654,379.398 301.752,383.828 
	302.117,388.811 301.386,393.24 299.375,397.485 296.631,400.808 292.242,403.575 288.037,405.42 284.38,406.343 280.906,406.712 
	227.512,406.712 220.38,404.866 215.991,403.206 211.786,400.438 209.043,397.485 207.031,393.24 206.117,388.996 206.483,383.644 
	207.031,379.583 209.043,374.97 235.009,330.124 238.666,326.248 243.603,323.111 249.088,321.081 "/>
<text transform="matrix(1 0 0 1 220.8599 373.9619)"><tspan x="0" y="0" style="fill:#666666; font-family:'LucidaGrande'; font-size:16;">between</tspan><tspan x="4.402" y="19.2" style="fill:#666666; font-family:'LucidaGrande'; font-size:16;">E and S</tspan></text>
<polygon style="fill:#FFFFFF;" points="148.111,242.962 153.598,244.069 157.986,245.545 162.009,248.499 165.849,252.743 
	194.009,297.404 195.654,301.648 196.752,306.078 197.117,311.061 196.386,315.49 194.375,319.735 191.632,323.058 187.243,325.825 
	183.037,327.67 179.38,328.593 175.906,328.962 122.512,328.962 115.38,327.116 110.992,325.456 106.786,322.688 104.043,319.735 
	102.031,315.49 101.117,311.246 101.483,305.894 102.031,301.833 104.043,297.22 130.009,252.374 133.666,248.499 138.603,245.361 
	144.089,243.331 "/>
<polygon style="fill:none;stroke:#B5B5B5;stroke-width:2;stroke-linejoin:round;stroke-miterlimit:8;" points="148.111,242.962 
	153.598,244.069 157.986,245.545 162.009,248.499 165.849,252.743 194.009,297.404 195.654,301.648 196.752,306.078 
	197.117,311.061 196.386,315.49 194.375,319.735 191.632,323.058 187.243,325.825 183.037,327.67 179.38,328.593 175.906,328.962 
	122.512,328.962 115.38,327.116 110.992,325.456 106.786,322.688 104.043,319.735 102.031,315.49 101.117,311.246 101.483,305.894 
	102.031,301.833 104.043,297.22 130.009,252.374 133.666,248.499 138.603,245.361 144.089,243.331 "/>
<text transform="matrix(1 0 0 1 132.7021 293.9619)"><tspan x="0" y="0" style="fill:#666666; font-family:'LucidaGrande'; font-size:16;">less</tspan><tspan x="-9.281" y="19.2" style="fill:#666666; font-family:'LucidaGrande'; font-size:16;">than E</tspan></text>
<path style="fill:#FFFFFF;" d="M239.533,193.368c6.249,6.249,6.249,16.379,0,22.627c-6.248,6.248-16.379,6.248-22.627,0
	c-6.248-6.249-6.248-16.379,0-22.627S233.285,187.119,239.533,193.368"/>
<path style="fill:none;stroke:#000000;stroke-linejoin:round;stroke-miterlimit:8;" d="M239.533,193.368
	c6.249,6.249,6.249,16.379,0,22.627c-6.248,6.248-16.379,6.248-22.627,0c-6.248-6.249-6.248-16.379,0-22.627
	S233.285,187.119,239.533,193.368"/>
<text transform="matrix(1 0 0 1 222.2583 210.6816)" style="font-family:'LucidaGrande'; font-size:22;">E</text>
<line style="fill:none;stroke:#000000;stroke-width:2;stroke-linejoin:round;stroke-miterlimit:8;" x1="626.227" y1="339.051" x2="693.908" y2="263.884"/>
<line style="fill:none;stroke:#000000;stroke-width:2;stroke-linejoin:round;stroke-miterlimit:8;" x1="783.678" y1="344.257" x2="706.084" y2="266.664"/>
<line style="fill:none;stroke:#000000;stroke-width:2;stroke-linejoin:round;stroke-miterlimit:8;" x1="885.52" y1="264.488" x2="803.283" y2="210.861"/>
<line style="fill:none;stroke:#B5B5B5;stroke-width:4;stroke-linejoin:round;stroke-miterlimit:8;" x1="794.883" y1="190.478" x2="794.883" y2="159.45"/>
<line style="fill:none;stroke:#F15A24;stroke-width:7;stroke-linejoin:round;stroke-miterlimit:8;" x1="712.123" y1="250.691" x2="781.852" y2="210.432"/>
<polygon style="fill:#FFFFFF;" points="873.877,244.462 879.363,245.569 883.752,247.045 887.773,249.999 891.613,254.243 
	919.773,298.904 921.42,303.148 922.518,307.578 922.883,312.561 922.15,316.99 920.141,321.235 917.396,324.558 913.008,327.325 
	908.803,329.17 905.145,330.093 901.672,330.462 848.277,330.462 841.145,328.616 836.758,326.956 832.551,324.188 829.809,321.235 
	827.797,316.99 826.883,312.746 827.248,307.394 827.797,303.333 829.809,298.72 855.773,253.874 859.432,249.999 864.367,246.861 
	869.854,244.831 "/>
<polygon style="fill:none;stroke:#B5B5B5;stroke-width:2;stroke-linejoin:round;stroke-miterlimit:8;" points="873.877,244.462 
	879.363,245.569 883.752,247.045 887.773,249.999 891.613,254.243 919.773,298.904 921.42,303.148 922.518,307.578 922.883,312.561 
	922.15,316.99 920.141,321.235 917.396,324.558 913.008,327.325 908.803,329.17 905.145,330.093 901.672,330.462 848.277,330.462 
	841.145,328.616 836.758,326.956 832.551,324.188 829.809,321.235 827.797,316.99 826.883,312.746 827.248,307.394 827.797,303.333 
	829.809,298.72 855.773,253.874 859.432,249.999 864.367,246.861 869.854,244.831 "/>
<text transform="matrix(1 0 0 1 846.1895 295.4619)"><tspan x="0" y="0" style="fill:#333333; font-family:'LucidaGrande'; font-size:16;">g</tspan><tspan x="9.977" y="0" style="fill:#333333; font-family:'LucidaGrande'; font-size:16;">r</tspan><tspan x="16.219" y="0" style="fill:#333333; font-family:'LucidaGrande'; font-size:16;">eater</tspan><tspan x="3.527" y="19.2" style="fill:#333333; font-family:'LucidaGrande'; font-size:16;">than S</tspan></text>
<polygon style="fill:#FFFFFF;" points="629.877,322.462 635.363,323.569 639.752,325.046 643.773,327.998 647.613,332.243 
	675.773,376.904 677.42,381.148 678.518,385.578 678.883,390.561 678.15,394.99 676.141,399.235 673.396,402.557 669.008,405.325 
	664.803,407.17 661.145,408.093 657.672,408.462 604.277,408.462 597.145,406.616 592.756,404.956 588.551,402.188 585.809,399.235 
	583.797,394.99 582.883,390.746 583.248,385.394 583.797,381.333 585.809,376.72 611.773,331.874 615.432,327.998 620.367,324.861 
	625.854,322.831 "/>
<polygon style="fill:none;stroke:#B5B5B5;stroke-width:2;stroke-linejoin:round;stroke-miterlimit:8;" points="629.877,322.462 
	635.363,323.569 639.752,325.046 643.773,327.998 647.613,332.243 675.773,376.904 677.42,381.148 678.518,385.578 678.883,390.561 
	678.15,394.99 676.141,399.235 673.396,402.558 669.008,405.325 664.803,407.17 661.145,408.093 657.672,408.462 604.277,408.462 
	597.145,406.616 592.756,404.956 588.551,402.188 585.809,399.235 583.797,394.99 582.883,390.746 583.248,385.394 583.797,381.333 
	585.809,376.72 611.773,331.874 615.432,327.998 620.367,324.861 625.854,322.831 "/>
<text transform="matrix(1 0 0 1 613.4668 373.4619)"><tspan x="0" y="0" style="fill:#333333; font-family:'LucidaGrande'; font-size:16;">less</tspan><tspan x="-9.281" y="19.2" style="fill:#333333; font-family:'LucidaGrande'; font-size:16;">than E</tspan></text>
<text transform="matrix(1 0 0 1 824.1289 206.4619)" style="fill:#333333; font-family:'LucidaGrande'; font-size:16;">x</text>
<text transform="matrix(1 0 0 1 667.4482 265.4619)" style="fill:#333333; font-family:'LucidaGrande'; font-size:16;">h</text>
<path style="fill:#FFFFFF;" d="M712.299,248.868c6.248,6.249,6.248,16.379,0,22.627s-16.379,6.248-22.627,0s-6.248-16.379,0-22.627
	S706.051,242.619,712.299,248.868"/>
<path style="fill:none;stroke:#000000;stroke-linejoin:round;stroke-miterlimit:8;" d="M712.299,248.868
	c6.248,6.249,6.248,16.379,0,22.627s-16.379,6.248-22.627,0s-6.248-16.379,0-22.627S706.051,242.619,712.299,248.868"/>
<text transform="matrix(1 0 0 1 695.0234 266.1816)" style="font-family:'LucidaGrande'; font-size:22;">E</text>
<polygon style="fill:#FFFFFF;" points="768.877,322.212 774.363,323.319 778.752,324.796 782.773,327.748 786.613,331.993 
	814.773,376.654 816.42,380.898 817.518,385.328 817.883,390.311 817.15,394.74 815.141,398.985 812.396,402.307 808.008,405.075 
	803.803,406.92 800.145,407.843 796.672,408.212 743.277,408.212 736.145,406.366 731.756,404.706 727.551,401.938 724.809,398.985 
	722.797,394.74 721.883,390.496 722.248,385.144 722.797,381.083 724.809,376.47 750.773,331.624 754.432,327.748 759.367,324.611 
	764.854,322.581 "/>
<polygon style="fill:none;stroke:#B5B5B5;stroke-width:2;stroke-linejoin:round;stroke-miterlimit:8;" points="768.877,322.212 
	774.363,323.319 778.752,324.796 782.773,327.748 786.613,331.993 814.773,376.654 816.42,380.898 817.518,385.328 817.883,390.311 
	817.15,394.74 815.141,398.985 812.396,402.308 808.008,405.075 803.803,406.92 800.145,407.843 796.672,408.212 743.277,408.212 
	736.145,406.366 731.756,404.706 727.551,401.938 724.809,398.985 722.797,394.74 721.883,390.496 722.248,385.144 722.797,381.083 
	724.809,376.47 750.773,331.624 754.432,327.748 759.367,324.611 764.854,322.581 "/>
<text transform="matrix(1 0 0 1 737.4258 373.4619)"><tspan x="0" y="0" style="fill:#333333; font-family:'LucidaGrande'; font-size:16;">between</tspan><tspan x="4.402" y="19.2" style="fill:#333333; font-family:'LucidaGrande'; font-size:16;">E and S</tspan></text>
<path style="fill:#FFFFFF;" d="M806.195,192.148c6.25,6.248,6.25,16.379,0,22.627c-6.248,6.249-16.379,6.249-22.627,0
	c-6.248-6.248-6.248-16.379,0-22.627C789.816,185.9,799.947,185.9,806.195,192.148"/>
<path style="fill:none;stroke:#000000;stroke-linejoin:round;stroke-miterlimit:8;" d="M806.195,192.148
	c6.25,6.248,6.25,16.379,0,22.627c-6.248,6.249-16.379,6.249-22.627,0c-6.248-6.248-6.248-16.379,0-22.627
	C789.816,185.9,799.947,185.9,806.195,192.148"/>
<text transform="matrix(1 0 0 1 788.9531 209.4619)" style="font-family:'LucidaGrande'; font-size:22;">S</text>
<text transform="matrix(1 0 0 1 726.668 117.3545)" style="font-family:'Verdana'; font-size:16;">(after)</text>
<path d="M537.742,284.59l-11.574,10.672c-0.302,0.27-0.695,0.329-1.055,0.18c-0.332-0.152-0.574-0.483-0.574-0.875v-6.752H486.92
	c-0.542,0-0.964-0.422-0.964-0.964v-5.788c0-0.543,0.422-0.965,0.964-0.965h37.619v-6.752c0-0.391,0.211-0.723,0.574-0.874
	c0.359-0.149,0.753-0.091,1.055,0.151l11.574,10.549c0.181,0.183,0.302,0.422,0.302,0.695
	C538.044,284.137,537.923,284.409,537.742,284.59z"/>
</svg>
