<?xml version="1.0" encoding="utf-8"?>
<!-- Generator: Adobe Illustrator 16.0.0, SVG Export Plug-In . SVG Version: 6.00 Build 0)  -->
<!DOCTYPE svg PUBLIC "-//W3C//DTD SVG 1.1//EN" "http://www.w3.org/Graphics/SVG/1.1/DTD/svg11.dtd">
<svg version="1.1" id="Layer_1" xmlns="http://www.w3.org/2000/svg" xmlns:xlink="http://www.w3.org/1999/xlink" x="0px" y="0px"
	 width="1000px" height="500px" viewBox="0 0 1000 500" style="enable-background:new 0 0 1000 500;" xml:space="preserve">
<g>
	<g>
		<path style="fill:#BCBEC0;" d="M90.979,328.458l-0.326-0.028c-0.125-0.022-0.246-0.058-0.36-0.103
			c-0.153-0.062-0.299-0.144-0.434-0.246c-0.171-0.13-0.322-0.291-0.441-0.478l-0.161-0.313c-0.047-0.117-0.082-0.242-0.104-0.369
			c-0.021-0.121-0.03-0.24-0.027-0.359V205.884l0.001-0.106l0.039-0.322c0.039-0.183,0.105-0.357,0.194-0.516
			c0.093-0.167,0.209-0.317,0.344-0.444c0.122-0.116,0.262-0.217,0.417-0.297c0.12-0.062,0.247-0.113,0.381-0.148l106.909-31.032
			l0.297-0.068l0.259-0.018l0.291,0.023l100.021,13.791c0.184,0.022,0.361,0.073,0.523,0.145l0.124,0.06l0.001,0.001
			c0.176,0.093,0.339,0.217,0.481,0.37l0.002,0.002l0.001,0.001l0.039,0.043l0.04,0.049l113.854,137.973
			c0.098,0.113,0.179,0.236,0.246,0.365l0.118,0.284v0.002l0.001,0.006l0.002,0.006l0.001,0.004v0.002l0.002,0.006l0.001,0.005
			l0.001,0.007l0.002,0.005v0.001l0.001,0.006l0.001,0.005l0.001,0.005l0.001,0.006l0.002,0.006l0.001,0.006l0.001,0.005
			l0.001,0.005l0.001,0.006v0.001l0.001,0.005l0.001,0.007l0.002,0.005v0.003l0.001,0.002v0.003l0.001,0.004v0.003l0.001,0.005
			l0.001,0.004c0.042,0.174,0.059,0.356,0.047,0.542c-0.009,0.159-0.041,0.32-0.092,0.477v0.001l-0.001,0.004l-0.081,0.198
			l-0.081,0.154h-0.001l-0.002,0.005l-0.001,0.002l-0.002,0.005l-0.25,0.325c-0.142,0.149-0.305,0.27-0.482,0.362l-0.04,0.02
			l-0.001,0.001l-0.005,0.003l-0.005,0.002h-0.001l-0.004,0.003h-0.001l-0.005,0.003l-0.07,0.031l-0.001,0.001l-0.005,0.001
			l-0.004,0.003h-0.001l-0.004,0.001l-0.005,0.003h-0.001l-0.005,0.003h-0.001l-0.003,0.001l-0.004,0.001l-0.001,0.002l-0.004,0.001
			l-0.005,0.001l-0.252,0.079c-0.148,0.035-0.303,0.047-0.463,0.05H91.022H90.979z M101.571,324.75h293.906l-180.136-41.077
			L101.571,324.75z M221.286,281.227l181.782,41.452l-105.241-73.336L221.286,281.227z M92.833,208.442V322.13l84.469-84.458
			L92.833,208.442z M180.526,239.692l-82.359,82.346l114.04-41.174L180.526,239.692z M299.907,246.274l101.994,71.075
			L299.907,193.746V246.274z M184.752,239.106l31.072,40.381l74.564-31.062L184.752,239.106z M183.091,235.238l108.436,9.566
			l-92.49-66.954L183.091,235.238z M205.063,177.637l91.136,65.974v-53.408L205.063,177.637z M97.095,205.995l82.355,28.498
			l15.839-56.999L97.095,205.995z"/>
		<path style="fill:#231F20;" d="M90.984,331.471h-0.019c-3.072-0.012-5.552-2.51-5.542-5.58l0.434-122.057
			c0.012-3.063,2.499-5.541,5.561-5.541l0.02,0.001c3.071,0.011,5.552,2.509,5.541,5.579L96.545,325.93
			C96.534,328.994,94.047,331.471,90.984,331.471z"/>
		<path style="fill:#231F20;" d="M180.712,241.76c-0.492,0-0.993-0.066-1.492-0.204c-2.958-0.823-4.69-3.888-3.869-6.846
			l17.254-62.105c0.823-2.958,3.879-4.694,6.847-3.869c2.958,0.821,4.69,3.888,3.869,6.846l-17.255,62.105
			C185.382,240.148,183.148,241.76,180.712,241.76z"/>
		<path style="fill:#231F20;" d="M215.228,286.615c-1.714,0-3.404-0.789-4.493-2.278l-32.788-44.856
			c-1.812-2.479-1.272-5.958,1.207-7.771c2.48-1.812,5.958-1.272,7.771,1.208l32.788,44.855c1.812,2.479,1.272,5.958-1.207,7.771
			C217.516,286.268,216.367,286.615,215.228,286.615z"/>
		<path style="fill:#231F20;" d="M411.932,331.472c-1.074,0-2.161-0.311-3.117-0.958l-115.957-78.67
			c-2.542-1.724-3.204-5.183-1.48-7.724c1.726-2.541,5.183-3.204,7.724-1.479L415.06,321.31c2.541,1.725,3.204,5.183,1.479,7.724
			C415.463,330.618,413.713,331.472,411.932,331.472z"/>
		<path style="fill:#231F20;" d="M298.051,247.971c-3.071,0-5.561-2.489-5.561-5.561v-54.515c0-3.07,2.489-5.561,5.561-5.561
			s5.561,2.491,5.561,5.561v54.515C303.612,245.481,301.123,247.971,298.051,247.971z"/>
		<path style="fill:#231F20;" d="M416.084,325.91c0,2.287-1.854,4.141-4.141,4.141c-2.288,0-4.142-1.854-4.142-4.141
			c0-2.286,1.854-4.14,4.142-4.14C414.23,321.771,416.084,323.624,416.084,325.91"/>
		<path style="fill:#231F20;" d="M302.197,246.551c0,2.287-1.854,4.141-4.142,4.141c-2.287,0-4.141-1.854-4.141-4.141
			s1.854-4.141,4.141-4.141C300.343,242.41,302.197,244.264,302.197,246.551"/>
		<path style="fill:#231F20;" d="M95.126,325.91c0,2.287-1.86,4.141-4.141,4.141c-2.288,0-4.142-1.854-4.142-4.141
			c0-2.286,1.854-4.14,4.142-4.14C93.266,321.771,95.126,323.624,95.126,325.91"/>
		<path style="fill:#231F20;" d="M95.126,205.146c0,2.287-1.86,4.141-4.141,4.141c-2.288,0-4.142-1.854-4.142-4.141
			s1.854-4.141,4.142-4.141C93.266,201.005,95.126,202.859,95.126,205.146"/>
		<path style="fill:#231F20;" d="M95.126,205.146c0,2.287-1.86,4.141-4.141,4.141c-2.288,0-4.142-1.854-4.142-4.141
			s1.854-4.141,4.142-4.141C93.266,201.005,95.126,202.859,95.126,205.146"/>
		<path style="fill:#231F20;" d="M184.855,236.198c0,2.287-1.854,4.141-4.141,4.141c-2.288,0-4.142-1.854-4.142-4.141
			c0-2.286,1.854-4.139,4.142-4.139C183.001,232.059,184.855,233.912,184.855,236.198"/>
		<path style="fill:#231F20;" d="M219.369,281.05c0,2.286-1.854,4.14-4.141,4.14c-2.288,0-4.142-1.854-4.142-4.14
			c0-2.28,1.854-4.133,4.142-4.133C217.515,276.917,219.369,278.77,219.369,281.05"/>
		<path style="fill:#231F20;" d="M302.197,246.551c0,2.287-1.854,4.141-4.142,4.141c-2.287,0-4.141-1.854-4.141-4.141
			s1.854-4.141,4.141-4.141C300.343,242.41,302.197,244.264,302.197,246.551"/>
		<path style="fill:#231F20;" d="M202.11,174.094c0,2.287-1.854,4.141-4.141,4.141c-2.28,0-4.142-1.854-4.142-4.141
			s1.861-4.141,4.142-4.141C200.256,169.953,202.11,171.807,202.11,174.094"/>
		<path style="fill:#231F20;" d="M184.855,236.198c0,2.287-1.854,4.141-4.141,4.141c-2.288,0-4.142-1.854-4.142-4.141
			c0-2.286,1.854-4.139,4.142-4.139C183.001,232.059,184.855,233.912,184.855,236.198"/>
		<path style="fill:#231F20;" d="M302.197,246.551c0,2.287-1.854,4.141-4.142,4.141c-2.287,0-4.141-1.854-4.141-4.141
			s1.854-4.141,4.141-4.141C300.343,242.41,302.197,244.264,302.197,246.551"/>
		<path style="fill:#231F20;" d="M302.197,187.895c0,2.287-1.854,4.141-4.142,4.141c-2.287,0-4.141-1.854-4.141-4.141
			s1.854-4.141,4.141-4.141C300.343,183.754,302.197,185.608,302.197,187.895"/>
		<path style="fill:#231F20;" d="M219.369,281.05c0,2.286-1.854,4.14-4.141,4.14c-2.288,0-4.142-1.854-4.142-4.14
			c0-2.28,1.854-4.133,4.142-4.133C217.515,276.917,219.369,278.77,219.369,281.05"/>
		<path style="fill:#231F20;" d="M184.855,236.198c0,2.287-1.854,4.141-4.141,4.141c-2.288,0-4.142-1.854-4.142-4.141
			c0-2.286,1.854-4.139,4.142-4.139C183.001,232.059,184.855,233.912,184.855,236.198"/>
		<path style="fill:#FFFFFF;" d="M230.755,281.053c0,8.573-6.955,15.526-15.527,15.526c-8.579,0-15.533-6.953-15.533-15.526
			c0-8.572,6.955-15.523,15.533-15.523C223.8,265.529,230.755,272.48,230.755,281.053"/>
		<path style="fill:#231F20;" d="M215.228,297.506c-9.076,0-16.46-7.381-16.46-16.453c0-9.07,7.384-16.449,16.46-16.449
			c9.072,0,16.453,7.379,16.453,16.449C231.681,290.125,224.3,297.506,215.228,297.506z M215.228,266.456
			c-8.054,0-14.607,6.548-14.607,14.597c0,8.05,6.553,14.601,14.607,14.601c8.05,0,14.601-6.551,14.601-14.601
			C229.829,273.004,223.278,266.456,215.228,266.456z"/>
		<path style="fill:#FFFFFF;" d="M213.5,174.094c0,8.573-6.956,15.523-15.531,15.523s-15.529-6.95-15.529-15.523
			c0-8.574,6.955-15.527,15.529-15.527S213.5,165.52,213.5,174.094"/>
		<path style="fill:#231F20;" d="M197.969,190.544c-9.074,0-16.456-7.38-16.456-16.451c0-9.072,7.382-16.453,16.456-16.453
			c9.075,0,16.457,7.381,16.457,16.453C214.426,183.165,207.044,190.544,197.969,190.544z M197.969,159.495
			c-8.052,0-14.603,6.549-14.603,14.599c0,8.048,6.551,14.597,14.603,14.597c8.053,0,14.604-6.548,14.604-14.597
			C212.574,166.044,206.022,159.495,197.969,159.495z"/>
		<path style="fill:#FFFFFF;" d="M313.583,187.895c0,8.574-6.956,15.523-15.527,15.523c-8.579,0-15.534-6.949-15.534-15.523
			c0-8.573,6.955-15.527,15.534-15.527C306.627,172.368,313.583,179.322,313.583,187.895"/>
		<path style="fill:#231F20;" d="M298.057,204.346c-9.077,0-16.46-7.379-16.46-16.451c0-9.072,7.383-16.453,16.46-16.453
			c9.072,0,16.453,7.381,16.453,16.453C314.51,196.966,307.129,204.346,298.057,204.346z M298.057,173.296
			c-8.054,0-14.607,6.549-14.607,14.599c0,8.049,6.553,14.597,14.607,14.597c8.05,0,14.601-6.548,14.601-14.597
			C312.657,179.845,306.106,173.296,298.057,173.296z"/>
		<path style="fill:#FFFFFF;" d="M106.513,325.91c0,8.573-6.955,15.523-15.527,15.523c-8.579,0-15.533-6.95-15.533-15.523
			c0-8.572,6.955-15.525,15.533-15.525C99.558,310.385,106.513,317.338,106.513,325.91"/>
		<path style="fill:#231F20;" d="M90.986,342.359c-9.076,0-16.459-7.38-16.459-16.449c0-9.072,7.383-16.452,16.459-16.452
			c9.072,0,16.453,7.38,16.453,16.452C107.439,334.979,100.058,342.359,90.986,342.359z M90.986,311.311
			c-8.054,0-14.607,6.55-14.607,14.6c0,8.049,6.553,14.597,14.607,14.597c8.05,0,14.601-6.548,14.601-14.597
			C105.586,317.86,99.036,311.311,90.986,311.311z"/>
		<path style="fill:#FFFFFF;" d="M106.513,205.146c0,8.574-6.955,15.523-15.527,15.523c-8.579,0-15.533-6.949-15.533-15.523
			c0-8.573,6.955-15.527,15.533-15.527C99.558,189.619,106.513,196.573,106.513,205.146"/>
		<path style="fill:#231F20;" d="M90.986,221.597c-9.076,0-16.459-7.379-16.459-16.451c0-9.072,7.383-16.453,16.459-16.453
			c9.072,0,16.453,7.381,16.453,16.453C107.439,214.217,100.058,221.597,90.986,221.597z M90.986,190.547
			c-8.054,0-14.607,6.549-14.607,14.599c0,8.049,6.553,14.597,14.607,14.597c8.05,0,14.601-6.548,14.601-14.597
			C105.586,197.096,99.036,190.547,90.986,190.547z"/>
		<path style="fill:#FFFFFF;" d="M427.471,325.91c0,8.573-6.951,15.523-15.527,15.523c-8.578,0-15.533-6.95-15.533-15.523
			c0-8.572,6.956-15.525,15.533-15.525C420.52,310.385,427.471,317.338,427.471,325.91"/>
		<path style="fill:#231F20;" d="M411.945,342.359c-9.077,0-16.461-7.38-16.461-16.449c0-9.072,7.384-16.452,16.461-16.452
			c9.072,0,16.452,7.38,16.452,16.452C428.397,334.979,421.018,342.359,411.945,342.359z M411.945,311.311
			c-8.055,0-14.608,6.55-14.608,14.6c0,8.049,6.553,14.597,14.608,14.597c8.05,0,14.599-6.548,14.599-14.597
			C426.544,317.86,419.995,311.311,411.945,311.311z"/>
		<path style="fill:#FFFFFF;" d="M196.245,236.198c0,8.574-6.956,15.527-15.531,15.527c-8.579,0-15.529-6.954-15.529-15.527
			c0-8.572,6.951-15.522,15.529-15.522C189.289,220.676,196.245,227.626,196.245,236.198"/>
		<path style="fill:#231F20;" d="M180.714,252.653c-9.074,0-16.456-7.382-16.456-16.455c0-9.069,7.382-16.449,16.456-16.449
			c9.075,0,16.457,7.38,16.457,16.449C197.171,245.271,189.79,252.653,180.714,252.653z M180.714,221.603
			c-8.052,0-14.603,6.547-14.603,14.595c0,8.051,6.551,14.601,14.603,14.601c8.053,0,14.604-6.549,14.604-14.601
			C195.319,228.15,188.767,221.603,180.714,221.603z"/>
		<path style="fill:#FFFFFF;" d="M313.583,246.551c0,8.573-6.956,15.522-15.527,15.522c-8.579,0-15.534-6.949-15.534-15.522
			c0-8.574,6.955-15.527,15.534-15.527C306.627,231.024,313.583,237.977,313.583,246.551"/>
		<path style="fill:#231F20;" d="M298.057,263.001c-9.077,0-16.46-7.379-16.46-16.45c0-9.073,7.383-16.453,16.46-16.453
			c9.072,0,16.453,7.38,16.453,16.453C314.51,255.622,307.129,263.001,298.057,263.001z M298.057,231.951
			c-8.054,0-14.607,6.549-14.607,14.6c0,8.049,6.553,14.597,14.607,14.597c8.05,0,14.601-6.548,14.601-14.597
			C312.657,238.5,306.106,231.951,298.057,231.951z"/>
	</g>
	<g>
		<path style="fill:#BCBEC0;" d="M677.784,238.745c-0.199,0-0.405-0.034-0.604-0.103l-89.729-31.054
			c-0.966-0.335-1.48-1.39-1.146-2.358c0.335-0.967,1.391-1.479,2.358-1.145l89.729,31.054c0.968,0.334,1.479,1.39,1.145,2.357
			C679.271,238.263,678.554,238.745,677.784,238.745z"/>
		<path style="fill:#B85856;" d="M909.016,328.457H588.059c-1.023,0-1.854-0.831-1.854-1.854s0.83-1.854,1.854-1.854h320.957
			c1.023,0,1.853,0.83,1.853,1.854S910.039,328.457,909.016,328.457z"/>
		<path style="fill:#BCBEC0;" d="M588.056,328.457c-1.023,0-1.853-0.831-1.853-1.854V205.838c0-1.023,0.829-1.854,1.853-1.854
			c1.024,0,1.854,0.831,1.854,1.854v120.764C589.91,327.626,589.08,328.457,588.056,328.457z"/>
		<path style="fill:#BCBEC0;" d="M588.056,328.457c-0.473,0-0.948-0.183-1.31-0.543c-0.725-0.726-0.725-1.898,0-2.622l89.729-89.712
			c0.723-0.724,1.896-0.725,2.621,0c0.723,0.724,0.723,1.898-0.001,2.622l-89.729,89.712
			C589.005,328.274,588.531,328.457,588.056,328.457z"/>
		<path style="fill:#BCBEC0;" d="M909.019,328.455c-0.536,0-1.066-0.229-1.433-0.674L793.697,189.766
			c-0.652-0.79-0.539-1.958,0.25-2.61c0.791-0.651,1.958-0.539,2.609,0.251l113.89,138.015c0.65,0.79,0.539,1.958-0.251,2.608
			C909.85,328.316,909.433,328.455,909.019,328.455z"/>
		<path style="fill:#BCBEC0;" d="M909.013,328.457c-0.365,0-0.734-0.108-1.058-0.334l-113.889-79.36
			c-0.839-0.584-1.047-1.74-0.461-2.58c0.586-0.838,1.741-1.046,2.58-0.461l113.89,79.361c0.84,0.584,1.046,1.739,0.46,2.58
			C910.176,328.18,909.601,328.457,909.013,328.457z"/>
		<path style="fill:#BCBEC0;" d="M795.127,249.094c-1.024,0-1.853-0.829-1.853-1.853v-58.654c0-1.024,0.828-1.854,1.853-1.854
			c1.023,0,1.854,0.83,1.854,1.854v58.654C796.98,248.266,796.15,249.094,795.127,249.094z"/>
		<path style="fill:#B85856;" d="M795.129,249.094l-0.165-0.006l-117.34-10.352c-1.019-0.09-1.772-0.99-1.683-2.01
			c0.089-1.019,0.978-1.783,2.01-1.683l117.339,10.352c1.019,0.09,1.773,0.989,1.685,2.009
			C796.889,248.368,796.08,249.094,795.129,249.094z"/>
		<path style="fill:#B85856;" d="M795.127,249.096c-0.377,0-0.758-0.114-1.086-0.352l-100.086-72.458
			c-0.831-0.601-1.017-1.759-0.416-2.588c0.601-0.829,1.759-1.015,2.588-0.414l100.087,72.458c0.83,0.6,1.015,1.759,0.415,2.588
			C796.266,248.831,795.701,249.096,795.127,249.096z"/>
		<path style="fill:#B85856;" d="M795.129,190.441l-0.254-0.018l-100.088-13.803c-1.015-0.14-1.723-1.076-1.582-2.089
			c0.139-1.015,1.079-1.733,2.089-1.583l100.087,13.803c1.014,0.139,1.724,1.074,1.583,2.089
			C796.835,189.769,796.041,190.441,795.129,190.441z"/>
		<path style="fill:#BCBEC0;" d="M588.059,207.692c-0.804,0-1.545-0.527-1.78-1.338c-0.285-0.982,0.281-2.011,1.264-2.296
			l106.981-31.054c0.979-0.285,2.012,0.279,2.297,1.263c0.286,0.984-0.28,2.011-1.263,2.297l-106.981,31.054
			C588.403,207.668,588.229,207.692,588.059,207.692z"/>
		<path style="fill:#BCBEC0;" d="M677.787,238.745c-0.163,0-0.33-0.022-0.496-0.069c-0.987-0.274-1.564-1.295-1.29-2.282
			l17.255-62.106c0.272-0.987,1.294-1.565,2.281-1.29c0.986,0.274,1.564,1.295,1.289,2.283l-17.254,62.106
			C679.344,238.207,678.6,238.745,677.787,238.745z"/>
		<path style="fill:#B85856;" d="M909.019,328.457c-0.139,0-0.276-0.016-0.415-0.047l-196.717-44.86
			c-0.999-0.228-1.624-1.222-1.396-2.22c0.228-0.999,1.229-1.621,2.219-1.395l196.717,44.86c1,0.227,1.623,1.221,1.396,2.219
			C910.626,327.875,909.862,328.457,909.019,328.457z"/>
		<path style="fill:#B85856;" d="M712.301,287.307c-2.178,0-4.244-1.287-5.135-3.423c-1.181-2.835,0.16-6.091,2.995-7.272
			l82.828-34.504c2.834-1.183,6.091,0.16,7.271,2.995c1.18,2.835-0.161,6.09-2.994,7.27l-82.83,34.506
			C713.739,287.169,713.014,287.307,712.301,287.307z"/>
		<path style="fill:#BCBEC0;" d="M588.056,328.458c-0.758,0-1.471-0.469-1.743-1.226c-0.349-0.962,0.15-2.023,1.113-2.372
			l124.243-44.859c0.962-0.348,2.024,0.149,2.374,1.115c0.347,0.963-0.152,2.024-1.114,2.372l-124.244,44.859
			C588.478,328.423,588.264,328.458,588.056,328.458z"/>
		<path style="fill:#BCBEC0;" d="M712.3,283.599c-0.555,0-1.104-0.249-1.47-0.724l-34.515-44.856
			c-0.625-0.812-0.473-1.975,0.339-2.6c0.811-0.624,1.975-0.472,2.599,0.339l34.515,44.856c0.624,0.811,0.473,1.976-0.338,2.6
			C713.092,283.473,712.694,283.599,712.3,283.599z"/>
		<path style="fill:#231F20;" d="M588.062,331.471h-0.021c-3.071-0.012-5.55-2.51-5.539-5.58l0.434-122.057
			c0.011-3.065,2.497-5.541,5.56-5.541h0.02c3.071,0.01,5.553,2.509,5.542,5.58l-0.434,122.057
			C593.61,328.994,591.122,331.471,588.062,331.471z"/>
		<path style="fill:#231F20;" d="M677.788,241.76c-0.492,0-0.993-0.066-1.491-0.205c-2.958-0.821-4.691-3.886-3.869-6.846
			l17.255-62.104c0.821-2.958,3.893-4.688,6.845-3.869c2.959,0.822,4.692,3.887,3.869,6.845l-17.254,62.105
			C682.459,240.147,680.224,241.76,677.788,241.76z"/>
		<path style="fill:#231F20;" d="M712.305,286.615c-1.715,0-3.405-0.789-4.494-2.278l-32.788-44.858
			c-1.811-2.479-1.271-5.958,1.208-7.769c2.479-1.815,5.959-1.271,7.77,1.207l32.788,44.857c1.812,2.479,1.272,5.958-1.207,7.771
			C714.591,286.268,713.442,286.615,712.305,286.615z"/>
		<path style="fill:#231F20;" d="M909.008,331.474c-1.073,0-2.159-0.311-3.116-0.959l-115.957-78.673
			c-2.541-1.724-3.203-5.181-1.479-7.722c1.725-2.541,5.183-3.203,7.724-1.479l115.957,78.67c2.541,1.725,3.203,5.183,1.479,7.725
			C912.539,330.62,910.79,331.474,909.008,331.474z"/>
		<path style="fill:#231F20;" d="M795.127,247.971c-3.07,0-5.561-2.491-5.561-5.561v-54.515c0-3.071,2.49-5.561,5.561-5.561
			c3.071,0,5.561,2.489,5.561,5.561v54.515C800.688,245.48,798.198,247.971,795.127,247.971z"/>
		<path style="fill:#231F20;" d="M913.16,325.91c0,2.288-1.853,4.141-4.141,4.141s-4.141-1.853-4.141-4.141
			c0-2.286,1.853-4.14,4.141-4.14S913.16,323.624,913.16,325.91"/>
		<path style="fill:#231F20;" d="M799.272,246.551c0,2.288-1.854,4.141-4.141,4.141c-2.288,0-4.142-1.853-4.142-4.141
			c0-2.287,1.854-4.14,4.142-4.14C797.419,242.411,799.272,244.264,799.272,246.551"/>
		<path style="fill:#231F20;" d="M592.203,325.91c0,2.288-1.861,4.141-4.142,4.141c-2.287,0-4.143-1.853-4.143-4.141
			c0-2.286,1.855-4.14,4.143-4.14C590.342,321.771,592.203,323.624,592.203,325.91"/>
		<path style="fill:#231F20;" d="M592.203,205.146c0,2.288-1.861,4.141-4.142,4.141c-2.287,0-4.143-1.853-4.143-4.141
			c0-2.287,1.855-4.139,4.143-4.139C590.342,201.007,592.203,202.859,592.203,205.146"/>
		<path style="fill:#231F20;" d="M592.203,205.146c0,2.288-1.861,4.141-4.142,4.141c-2.287,0-4.143-1.853-4.143-4.141
			c0-2.287,1.855-4.139,4.143-4.139C590.342,201.007,592.203,202.859,592.203,205.146"/>
		<path style="fill:#231F20;" d="M681.932,236.198c0,2.288-1.854,4.141-4.142,4.141c-2.287,0-4.141-1.853-4.141-4.141
			c0-2.286,1.854-4.139,4.141-4.139C680.078,232.059,681.932,233.912,681.932,236.198"/>
		<path style="fill:#231F20;" d="M716.444,281.05c0,2.286-1.854,4.14-4.143,4.14c-2.286,0-4.139-1.854-4.139-4.14
			c0-2.28,1.853-4.133,4.139-4.133C714.591,276.917,716.444,278.77,716.444,281.05"/>
		<path style="fill:#231F20;" d="M799.272,246.551c0,2.288-1.854,4.141-4.141,4.141c-2.288,0-4.142-1.853-4.142-4.141
			c0-2.287,1.854-4.14,4.142-4.14C797.419,242.411,799.272,244.264,799.272,246.551"/>
		<path style="fill:#231F20;" d="M699.186,174.094c0,2.288-1.853,4.141-4.141,4.141c-2.28,0-4.141-1.853-4.141-4.141
			c0-2.287,1.86-4.139,4.141-4.139C697.333,169.955,699.186,171.807,699.186,174.094"/>
		<path style="fill:#231F20;" d="M681.932,236.198c0,2.288-1.854,4.141-4.142,4.141c-2.287,0-4.141-1.853-4.141-4.141
			c0-2.286,1.854-4.139,4.141-4.139C680.078,232.059,681.932,233.912,681.932,236.198"/>
		<path style="fill:#231F20;" d="M799.272,246.551c0,2.288-1.854,4.141-4.141,4.141c-2.288,0-4.142-1.853-4.142-4.141
			c0-2.287,1.854-4.14,4.142-4.14C797.419,242.411,799.272,244.264,799.272,246.551"/>
		<path style="fill:#231F20;" d="M799.272,187.895c0,2.287-1.854,4.141-4.141,4.141c-2.288,0-4.142-1.854-4.142-4.141
			s1.854-4.139,4.142-4.139C797.419,183.756,799.272,185.608,799.272,187.895"/>
		<path style="fill:#231F20;" d="M716.444,281.05c0,2.286-1.854,4.14-4.143,4.14c-2.286,0-4.139-1.854-4.139-4.14
			c0-2.28,1.853-4.133,4.139-4.133C714.591,276.917,716.444,278.77,716.444,281.05"/>
		<path style="fill:#231F20;" d="M681.932,236.198c0,2.288-1.854,4.141-4.142,4.141c-2.287,0-4.141-1.853-4.141-4.141
			c0-2.286,1.854-4.139,4.141-4.139C680.078,232.059,681.932,233.912,681.932,236.198"/>
		<path style="fill:#BCBEC0;" d="M710.577,174.094c0,8.573-6.956,15.523-15.531,15.523c-8.574,0-15.53-6.95-15.53-15.523
			c0-8.572,6.956-15.525,15.53-15.525C703.621,158.568,710.577,165.521,710.577,174.094"/>
		<path style="fill:#231F20;" d="M695.046,190.543c-9.073,0-16.457-7.379-16.457-16.449c0-9.072,7.384-16.453,16.457-16.453
			c9.074,0,16.457,7.381,16.457,16.453C711.503,183.164,704.12,190.543,695.046,190.543z M695.046,159.495
			c-8.053,0-14.604,6.549-14.604,14.599c0,8.048,6.551,14.595,14.604,14.595s14.604-6.547,14.604-14.595
			C709.649,166.044,703.099,159.495,695.046,159.495z"/>
		<path style="fill:#FFFFFF;" d="M810.659,187.895c0,8.574-6.955,15.523-15.527,15.523c-8.577,0-15.533-6.949-15.533-15.523
			c0-8.572,6.956-15.525,15.533-15.525C803.704,172.37,810.659,179.323,810.659,187.895"/>
		<path style="fill:#231F20;" d="M795.132,204.345c-9.076,0-16.461-7.38-16.461-16.45c0-9.072,7.385-16.453,16.461-16.453
			c9.073,0,16.453,7.381,16.453,16.453C811.585,196.965,804.205,204.345,795.132,204.345z M795.132,173.296
			c-8.054,0-14.605,6.549-14.605,14.599c0,8.049,6.552,14.596,14.605,14.596c8.05,0,14.601-6.547,14.601-14.596
			C809.732,179.845,803.182,173.296,795.132,173.296z"/>
		<path style="fill:#BCBEC0;" d="M603.59,205.146c0,8.574-6.956,15.523-15.527,15.523c-8.578,0-15.534-6.949-15.534-15.523
			c0-8.572,6.956-15.525,15.534-15.525C596.634,189.621,603.59,196.574,603.59,205.146"/>
		<path style="fill:#231F20;" d="M588.062,221.595c-9.076,0-16.461-7.379-16.461-16.449c0-9.072,7.385-16.453,16.461-16.453
			c9.072,0,16.453,7.381,16.453,16.453C604.516,214.216,597.135,221.595,588.062,221.595z M588.062,190.547
			c-8.054,0-14.606,6.549-14.606,14.599c0,8.049,6.553,14.595,14.606,14.595c8.05,0,14.6-6.546,14.6-14.595
			C602.662,197.096,596.112,190.547,588.062,190.547z"/>
		<path style="fill:#BCBEC0;" d="M693.32,236.198c0,8.574-6.954,15.527-15.529,15.527c-8.578,0-15.529-6.954-15.529-15.527
			c0-8.572,6.951-15.521,15.529-15.521C686.366,220.677,693.32,227.626,693.32,236.198"/>
		<path style="fill:#231F20;" d="M677.791,252.651c-9.075,0-16.457-7.38-16.457-16.453c0-9.069,7.382-16.449,16.457-16.449
			c9.074,0,16.457,7.38,16.457,16.449C694.248,245.271,686.865,252.651,677.791,252.651z M677.791,221.603
			c-8.053,0-14.603,6.547-14.603,14.595c0,8.05,6.55,14.6,14.603,14.6c8.052,0,14.602-6.549,14.602-14.6
			C692.393,228.15,685.843,221.603,677.791,221.603z"/>
		<path style="fill:#FFFFFF;" d="M810.659,246.551c0,8.573-6.955,15.522-15.527,15.522c-8.577,0-15.533-6.949-15.533-15.522
			c0-8.572,6.956-15.526,15.533-15.526C803.704,231.025,810.659,237.979,810.659,246.551"/>
		<path style="fill:#231F20;" d="M795.132,263c-9.076,0-16.461-7.38-16.461-16.449c0-9.073,7.385-16.453,16.461-16.453
			c9.073,0,16.453,7.38,16.453,16.453C811.585,255.62,804.205,263,795.132,263z M795.132,231.951c-8.054,0-14.605,6.549-14.605,14.6
			c0,8.049,6.552,14.595,14.605,14.595c8.05,0,14.601-6.546,14.601-14.595C809.732,238.5,803.182,231.951,795.132,231.951z"/>
		<path style="fill:#BCBEC0;" d="M727.83,281.054c0,8.572-6.954,15.525-15.525,15.525c-8.579,0-15.533-6.953-15.533-15.525
			c0-8.573,6.954-15.523,15.533-15.523C720.876,265.53,727.83,272.48,727.83,281.054"/>
		<path style="fill:#231F20;" d="M712.305,297.506c-9.076,0-16.461-7.38-16.461-16.452c0-9.069,7.385-16.45,16.461-16.45
			c9.072,0,16.453,7.381,16.453,16.45C728.758,290.126,721.377,297.506,712.305,297.506z M712.305,266.457
			c-8.055,0-14.607,6.548-14.607,14.597c0,8.05,6.553,14.6,14.607,14.6c8.05,0,14.6-6.55,14.6-14.6
			C726.904,273.005,720.354,266.457,712.305,266.457z"/>
		<path style="fill:#BCBEC0;" d="M603.59,325.91c0,8.573-6.956,15.523-15.527,15.523c-8.578,0-15.534-6.95-15.534-15.523
			c0-8.572,6.956-15.525,15.534-15.525C596.634,310.385,603.59,317.338,603.59,325.91"/>
		<path style="fill:#231F20;" d="M588.062,342.359c-9.076,0-16.461-7.38-16.461-16.449c0-9.072,7.385-16.452,16.461-16.452
			c9.072,0,16.453,7.38,16.453,16.452C604.516,334.979,597.135,342.359,588.062,342.359z M588.062,311.311
			c-8.054,0-14.606,6.55-14.606,14.6c0,8.049,6.553,14.597,14.606,14.597c8.05,0,14.6-6.548,14.6-14.597
			C602.662,317.86,596.112,311.311,588.062,311.311z"/>
		<path style="fill:#FFFFFF;" d="M924.546,325.91c0,8.573-6.951,15.523-15.525,15.523c-8.578,0-15.533-6.95-15.533-15.523
			c0-8.572,6.955-15.525,15.533-15.525C917.595,310.385,924.546,317.338,924.546,325.91"/>
		<path style="fill:#231F20;" d="M909.021,342.359c-9.076,0-16.461-7.38-16.461-16.449c0-9.072,7.385-16.452,16.461-16.452
			c9.072,0,16.453,7.38,16.453,16.452C925.474,334.979,918.093,342.359,909.021,342.359z M909.021,311.311
			c-8.054,0-14.605,6.55-14.605,14.6c0,8.049,6.552,14.597,14.605,14.597c8.05,0,14.6-6.548,14.6-14.597
			C923.62,317.86,917.07,311.311,909.021,311.311z"/>
	</g>
</g>
<g>
	<path d="M527.875,250.686l-12.534,11.555c-0.324,0.295-0.747,0.362-1.143,0.195c-0.356-0.162-0.618-0.519-0.618-0.947v-7.31
		h-40.736c-0.59,0-1.047-0.456-1.047-1.047v-6.263c0-0.59,0.457-1.047,1.047-1.047h40.736v-7.31c0-0.428,0.229-0.785,0.618-0.947
		c0.396-0.167,0.818-0.1,1.143,0.162l12.534,11.426c0.2,0.195,0.328,0.457,0.328,0.747
		C528.203,250.196,528.075,250.491,527.875,250.686z"/>
</g>
</svg>
