<?xml version="1.0" encoding="utf-8"?>
<!-- Generator: Adobe Illustrator 16.0.0, SVG Export Plug-In . SVG Version: 6.00 Build 0)  -->
<!DOCTYPE svg PUBLIC "-//W3C//DTD SVG 1.1//EN" "http://www.w3.org/Graphics/SVG/1.1/DTD/svg11.dtd">
<svg version="1.1" id="Layer_1" xmlns="http://www.w3.org/2000/svg" xmlns:xlink="http://www.w3.org/1999/xlink" x="0px" y="0px"
	 width="1024px" height="512px" viewBox="0 0 1024 512" style="enable-background:new 0 0 1024 512;" xml:space="preserve">
<text transform="matrix(1 0 0 1 238.2549 117.3545)" style="font-family:'Verdana'; font-size:16;">(before)</text>
<line style="fill:none;stroke:#000000;stroke-width:2;stroke-linejoin:round;stroke-miterlimit:8;" x1="144.462" y1="339.051" x2="212.144" y2="263.884"/>
<line style="fill:none;stroke:#000000;stroke-width:2;stroke-linejoin:round;stroke-miterlimit:8;" x1="301.913" y1="344.257" x2="224.319" y2="266.664"/>
<line style="fill:none;stroke:#000000;stroke-width:2;stroke-linejoin:round;stroke-miterlimit:8;" x1="403.755" y1="264.488" x2="321.519" y2="210.861"/>
<line style="fill:none;stroke:#B5B5B5;stroke-width:4;stroke-linejoin:round;stroke-miterlimit:8;" x1="313.118" y1="190.478" x2="313.118" y2="159.45"/>
<line style="fill:none;stroke:#F15A24;stroke-width:7;stroke-linejoin:round;stroke-miterlimit:8;" x1="230.358" y1="250.691" x2="300.087" y2="210.432"/>
<polygon style="fill:#FFFFFF;" points="392.112,244.462 397.599,245.569 401.987,247.045 406.009,249.999 409.849,254.243 
	438.009,298.904 439.655,303.148 440.753,307.578 441.118,312.561 440.386,316.99 438.376,321.235 435.632,324.558 431.243,327.325 
	427.038,329.17 423.38,330.093 419.907,330.462 366.513,330.462 359.38,328.616 354.993,326.956 350.786,324.188 348.044,321.235 
	346.032,316.99 345.118,312.746 345.483,307.394 346.032,303.333 348.044,298.721 374.009,253.874 377.667,249.999 382.603,246.861 
	388.089,244.831 "/>
<polygon style="fill:none;stroke:#B5B5B5;stroke-width:2;stroke-linejoin:round;stroke-miterlimit:8;" points="392.112,244.462 
	397.599,245.569 401.987,247.045 406.009,249.999 409.849,254.243 438.009,298.904 439.655,303.148 440.753,307.578 
	441.118,312.561 440.386,316.99 438.376,321.235 435.632,324.558 431.243,327.325 427.038,329.17 423.38,330.093 419.907,330.462 
	366.513,330.462 359.38,328.616 354.993,326.956 350.786,324.188 348.044,321.235 346.032,316.99 345.118,312.746 345.483,307.394 
	346.032,303.333 348.044,298.721 374.009,253.874 377.667,249.999 382.603,246.861 388.089,244.831 "/>
<text transform="matrix(1 0 0 1 364.4248 295.4619)" style="fill:#333333; font-family:'LucidaGrande'; font-size:16;">g</text>
<text transform="matrix(1 0 0 1 374.4019 295.4619)" style="fill:#333333; font-family:'LucidaGrande'; font-size:16;">r</text>
<text transform="matrix(1 0 0 1 380.644 295.4619)" style="fill:#333333; font-family:'LucidaGrande'; font-size:16;">eater</text>
<text transform="matrix(1 0 0 1 367.9517 314.6621)" style="fill:#333333; font-family:'LucidaGrande'; font-size:16;">than S</text>
<polygon style="fill:#FFFFFF;" points="148.112,322.462 153.599,323.569 157.987,325.046 162.009,327.998 165.849,332.243 
	194.009,376.904 195.655,381.148 196.753,385.578 197.118,390.561 196.386,394.99 194.376,399.235 191.632,402.557 187.243,405.325 
	183.038,407.17 179.38,408.093 175.907,408.462 122.513,408.462 115.38,406.616 110.991,404.956 106.786,402.188 104.044,399.235 
	102.032,394.99 101.118,390.746 101.483,385.394 102.032,381.333 104.044,376.72 130.009,331.874 133.667,327.998 138.603,324.861 
	144.089,322.831 "/>
<polygon style="fill:none;stroke:#B5B5B5;stroke-width:2;stroke-linejoin:round;stroke-miterlimit:8;" points="148.112,322.462 
	153.599,323.569 157.987,325.046 162.009,327.998 165.849,332.243 194.009,376.904 195.655,381.148 196.753,385.578 
	197.118,390.561 196.386,394.99 194.376,399.235 191.632,402.558 187.243,405.325 183.038,407.17 179.38,408.093 175.907,408.462 
	122.513,408.462 115.38,406.616 110.991,404.956 106.786,402.188 104.044,399.235 102.032,394.99 101.118,390.746 101.483,385.394 
	102.032,381.333 104.044,376.72 130.009,331.874 133.667,327.998 138.603,324.861 144.089,322.831 "/>
<text transform="matrix(1 0 0 1 131.7021 373.4619)" style="fill:#333333; font-family:'LucidaGrande'; font-size:16;">less</text>
<text transform="matrix(1 0 0 1 122.4209 392.6621)" style="fill:#333333; font-family:'LucidaGrande'; font-size:16;">than E</text>
<text transform="matrix(1 0 0 1 342.3643 206.4619)" style="fill:#333333; font-family:'LucidaGrande'; font-size:16;">h</text>
<text transform="matrix(1 0 0 1 185.6836 265.4619)" style="fill:#333333; font-family:'LucidaGrande'; font-size:16;">x</text>
<path style="fill:#FFFFFF;" d="M230.534,248.868c6.248,6.249,6.248,16.379,0,22.627s-16.379,6.248-22.627,0s-6.248-16.379,0-22.627
	S224.286,242.619,230.534,248.868"/>
<path style="fill:none;stroke:#000000;stroke-linejoin:round;stroke-miterlimit:8;" d="M230.534,248.868
	c6.248,6.249,6.248,16.379,0,22.627s-16.379,6.248-22.627,0s-6.248-16.379,0-22.627S224.286,242.619,230.534,248.868"/>
<text transform="matrix(1 0 0 1 213.2588 266.1816)" style="font-family:'LucidaGrande'; font-size:22;">E</text>
<polygon style="fill:#FFFFFF;" points="287.112,322.212 292.599,323.319 296.987,324.796 301.009,327.748 304.849,331.993 
	333.009,376.654 334.655,380.898 335.753,385.328 336.118,390.311 335.386,394.74 333.376,398.985 330.632,402.307 326.243,405.075 
	322.038,406.92 318.38,407.843 314.907,408.212 261.513,408.212 254.38,406.366 249.991,404.706 245.786,401.938 243.044,398.985 
	241.032,394.74 240.118,390.496 240.483,385.144 241.032,381.083 243.044,376.47 269.009,331.624 272.667,327.748 277.603,324.611 
	283.089,322.581 "/>
<polygon style="fill:none;stroke:#B5B5B5;stroke-width:2;stroke-linejoin:round;stroke-miterlimit:8;" points="287.112,322.212 
	292.599,323.319 296.987,324.796 301.009,327.748 304.849,331.993 333.009,376.654 334.655,380.898 335.753,385.328 
	336.118,390.311 335.386,394.74 333.376,398.985 330.632,402.308 326.243,405.075 322.038,406.92 318.38,407.843 314.907,408.212 
	261.513,408.212 254.38,406.366 249.991,404.706 245.786,401.938 243.044,398.985 241.032,394.74 240.118,390.496 240.483,385.144 
	241.032,381.083 243.044,376.47 269.009,331.624 272.667,327.748 277.603,324.611 283.089,322.581 "/>
<text transform="matrix(1 0 0 1 255.6611 373.4619)" style="fill:#333333; font-family:'LucidaGrande'; font-size:16;">between</text>
<text transform="matrix(1 0 0 1 260.063 392.6621)" style="fill:#333333; font-family:'LucidaGrande'; font-size:16;">E and S</text>
<path style="fill:#FFFFFF;" d="M324.431,192.148c6.25,6.248,6.25,16.379,0,22.627c-6.248,6.249-16.379,6.249-22.627,0
	c-6.248-6.248-6.248-16.379,0-22.627S318.183,185.9,324.431,192.148"/>
<path style="fill:none;stroke:#000000;stroke-linejoin:round;stroke-miterlimit:8;" d="M324.431,192.148
	c6.25,6.248,6.25,16.379,0,22.627c-6.248,6.249-16.379,6.249-22.627,0c-6.248-6.248-6.248-16.379,0-22.627
	S318.183,185.9,324.431,192.148"/>
<text transform="matrix(1 0 0 1 307.1885 209.4619)" style="font-family:'LucidaGrande'; font-size:22;">S</text>
<text transform="matrix(1 0 0 1 726.668 117.3545)" style="font-family:'Verdana'; font-size:16;">(after)</text>
<path d="M537.742,284.59l-11.574,10.672c-0.302,0.271-0.695,0.329-1.055,0.18c-0.332-0.151-0.574-0.482-0.574-0.875v-6.752H486.92
	c-0.542,0-0.964-0.422-0.964-0.963v-5.789c0-0.543,0.422-0.965,0.964-0.965h37.619v-6.752c0-0.391,0.211-0.723,0.574-0.873
	c0.358-0.149,0.753-0.092,1.055,0.15l11.574,10.549c0.181,0.184,0.302,0.422,0.302,0.695
	C538.044,284.137,537.923,284.409,537.742,284.59z"/>
<g>
	
		<line style="fill:none;stroke:#000000;stroke-width:2;stroke-linejoin:round;stroke-miterlimit:8;" x1="623.844" y1="258.861" x2="709.434" y2="204.962"/>
	
		<line style="fill:none;stroke:#B5B5B5;stroke-width:4;stroke-linejoin:round;stroke-miterlimit:8;" x1="709.883" y1="191.978" x2="709.883" y2="160.95"/>
	
		<line style="fill:none;stroke:#F15A24;stroke-width:7;stroke-linejoin:round;stroke-miterlimit:8;" x1="721.047" y1="208.064" x2="790.928" y2="248.058"/>
	
		<line style="fill:none;stroke:#000000;stroke-width:2;stroke-linejoin:round;stroke-miterlimit:8;" x1="880.18" y1="338.717" x2="814.624" y2="265.633"/>
	
		<line style="fill:none;stroke:#000000;stroke-width:2;stroke-linejoin:round;stroke-miterlimit:8;" x1="729.598" y1="340.116" x2="802.164" y2="257.805"/>
	<polygon style="fill:#FFFFFF;" points="873.877,320.962 879.363,322.069 883.752,323.546 887.773,326.498 891.613,330.743 
		919.773,375.404 921.42,379.648 922.518,384.078 922.883,389.061 922.15,393.49 920.141,397.735 917.396,401.057 913.008,403.825 
		908.803,405.67 905.145,406.593 901.672,406.962 848.277,406.962 841.145,405.116 836.758,403.456 832.551,400.688 
		829.809,397.735 827.797,393.49 826.883,389.246 827.247,383.894 827.797,379.833 829.809,375.22 855.773,330.374 859.432,326.498 
		864.369,323.361 869.854,321.331 	"/>
	<polygon style="fill:none;stroke:#B5B5B5;stroke-width:2;stroke-linejoin:round;stroke-miterlimit:8;" points="873.877,320.962 
		879.363,322.069 883.752,323.546 887.773,326.498 891.613,330.743 919.773,375.404 921.42,379.648 922.518,384.078 
		922.883,389.061 922.15,393.49 920.141,397.735 917.396,401.058 913.008,403.825 908.803,405.67 905.145,406.593 901.672,406.962 
		848.277,406.962 841.145,405.116 836.758,403.456 832.551,400.688 829.809,397.735 827.797,393.49 826.883,389.246 
		827.247,383.894 827.797,379.833 829.809,375.22 855.773,330.374 859.432,326.498 864.369,323.361 869.854,321.331 	"/>
	<text transform="matrix(1 0 0 1 849.3887 373.9619)" style="fill:#666666; font-family:'LucidaGrande'; font-size:16;">g</text>
	<text transform="matrix(1 0 0 1 859.3652 373.9619)" style="fill:#666666; font-family:'LucidaGrande'; font-size:16;">r</text>
	<text transform="matrix(1 0 0 1 865.6074 373.9619)" style="fill:#666666; font-family:'LucidaGrande'; font-size:16;">eater</text>
	<text transform="matrix(1 0 0 1 852.916 393.1621)" style="fill:#666666; font-family:'LucidaGrande'; font-size:16;">than S</text>
	<text transform="matrix(1 0 0 1 833.1289 262.9619)" style="fill:#333333; font-family:'LucidaGrande'; font-size:16;">h</text>
	<text transform="matrix(1 0 0 1 671.4492 207.9619)" style="fill:#333333; font-family:'LucidaGrande'; font-size:16;">x</text>
	<path style="fill:#FFFFFF;" d="M815.196,246.648c6.249,6.248,6.249,16.379,0,22.627c-6.248,6.248-16.38,6.248-22.627,0
		c-6.249-6.248-6.249-16.379,0-22.627C798.816,240.4,808.948,240.4,815.196,246.648"/>
	<path style="fill:none;stroke:#000000;stroke-linejoin:round;stroke-miterlimit:8;" d="M815.196,246.648
		c6.249,6.248,6.249,16.379,0,22.627c-6.248,6.248-16.38,6.248-22.627,0c-6.249-6.248-6.249-16.379,0-22.627
		C798.816,240.4,808.948,240.4,815.196,246.648"/>
	<text transform="matrix(1 0 0 1 797.9531 263.9619)" style="font-family:'LucidaGrande'; font-size:22;">S</text>
	<polygon style="fill:#FFFFFF;" points="734.876,320.712 740.363,321.819 744.751,323.296 748.773,326.248 752.614,330.493 
		780.773,375.154 782.419,379.398 783.518,383.828 783.883,388.811 783.15,393.24 781.141,397.485 778.396,400.807 774.008,403.575 
		769.803,405.42 766.145,406.343 762.672,406.712 709.277,406.712 702.145,404.866 697.756,403.206 693.551,400.438 
		690.809,397.485 688.797,393.24 687.883,388.996 688.248,383.644 688.797,379.583 690.809,374.97 716.773,330.124 720.432,326.248 
		725.368,323.111 730.854,321.081 	"/>
	<polygon style="fill:none;stroke:#B5B5B5;stroke-width:2;stroke-linejoin:round;stroke-miterlimit:8;" points="734.876,320.712 
		740.363,321.819 744.751,323.296 748.773,326.248 752.614,330.493 780.773,375.154 782.419,379.398 783.518,383.828 
		783.883,388.811 783.15,393.24 781.141,397.485 778.396,400.808 774.008,403.575 769.803,405.42 766.145,406.343 762.672,406.712 
		709.277,406.712 702.145,404.866 697.756,403.206 693.551,400.438 690.809,397.485 688.797,393.24 687.883,388.996 
		688.248,383.644 688.797,379.583 690.809,374.97 716.773,330.124 720.432,326.248 725.368,323.111 730.854,321.081 	"/>
	<text transform="matrix(1 0 0 1 702.625 373.9619)" style="fill:#666666; font-family:'LucidaGrande'; font-size:16;">between</text>
	<text transform="matrix(1 0 0 1 707.0273 393.1621)" style="fill:#666666; font-family:'LucidaGrande'; font-size:16;">E and S</text>
	<polygon style="fill:#FFFFFF;" points="629.876,242.962 635.363,244.069 639.751,245.545 643.773,248.499 647.614,252.743 
		675.773,297.404 677.419,301.648 678.518,306.078 678.883,311.061 678.15,315.49 676.141,319.735 673.396,323.058 669.008,325.825 
		664.803,327.67 661.145,328.593 657.672,328.962 604.277,328.962 597.145,327.116 592.758,325.456 588.551,322.688 
		585.809,319.735 583.797,315.49 582.883,311.246 583.248,305.895 583.797,301.833 585.809,297.221 611.773,252.374 
		615.432,248.499 620.368,245.361 625.854,243.331 	"/>
	<polygon style="fill:none;stroke:#B5B5B5;stroke-width:2;stroke-linejoin:round;stroke-miterlimit:8;" points="629.876,242.962 
		635.363,244.069 639.751,245.545 643.773,248.499 647.614,252.743 675.773,297.404 677.419,301.648 678.518,306.078 
		678.883,311.061 678.15,315.49 676.141,319.735 673.396,323.058 669.008,325.825 664.803,327.67 661.145,328.593 657.672,328.962 
		604.277,328.962 597.145,327.116 592.758,325.456 588.551,322.688 585.809,319.735 583.797,315.49 582.883,311.246 
		583.248,305.895 583.797,301.833 585.809,297.221 611.773,252.374 615.432,248.499 620.368,245.361 625.854,243.331 	"/>
	<text transform="matrix(1 0 0 1 614.4668 293.9619)" style="fill:#666666; font-family:'LucidaGrande'; font-size:16;">less</text>
	<text transform="matrix(1 0 0 1 605.1855 313.1621)" style="fill:#666666; font-family:'LucidaGrande'; font-size:16;">than E</text>
	<path style="fill:#FFFFFF;" d="M721.299,193.368c6.248,6.249,6.248,16.379,0,22.627s-16.38,6.248-22.627,0
		c-6.248-6.249-6.248-16.379,0-22.627C704.919,187.12,715.051,187.119,721.299,193.368"/>
	<path style="fill:none;stroke:#000000;stroke-linejoin:round;stroke-miterlimit:8;" d="M721.299,193.368
		c6.248,6.249,6.248,16.379,0,22.627s-16.38,6.248-22.627,0c-6.248-6.249-6.248-16.379,0-22.627
		C704.919,187.12,715.051,187.119,721.299,193.368"/>
	<text transform="matrix(1 0 0 1 704.0234 210.6816)" style="font-family:'LucidaGrande'; font-size:22;">E</text>
</g>
</svg>
